<svg xmlns="http://www.w3.org/2000/svg" viewBox="0 0 120 64" width="120" height="64">
	<title>logo-black -svg</title>
	
	<path fill-rule="evenodd" d="m34 48.5c-0.7 7.4-8.2 15.5-17.3 15.5-7.1 0-12.5-3.4-15.8-8.4l6.9-3.3c2 2.7 5.4 4.5 8.9 4.5 4.8 0 8.8-4.6 9.5-8.3zm8.4-48.5h7.6v48.5h-7.6zm-25.3 13.8c3.7 0 6.2 1.2 10 3.2v-2.1h7.7v15.6c0 9.2-8 16.6-17.4 16.6-9.4 0-17.4-7.5-17.4-16.7 0-9.2 7.6-16.6 17.1-16.6zm56.9-0.3c9.5 0 17.1 7.5 17.1 16.8 0 9.2-7.6 16.7-17.1 16.7-9.4 0-17.1-7.5-17.1-16.7 0-9.3 7.7-16.8 17.1-16.8zm-57 7.1c-5.2 0-9.4 4.4-9.4 9.8 0 5.5 4.2 9.9 9.4 9.9 5.2 0 9.4-4.4 9.4-9.9 0-5.4-4.2-9.8-9.4-9.8zm57-0.2c-5.2 0-9.4 4.4-9.4 9.9 0 5.4 4.2 9.8 9.4 9.8 5.2 0 9.5-4.4 9.5-9.8 0-5.5-4.3-9.9-9.5-9.9z" fill="rgb(24, 26, 36)"/>
	<path d="m101.6 43.9h-1.2c0-0.6 0.2-1.2 0.5-1.7 0.4-0.5 0.9-0.9 1.4-1.1 0.6-0.3 1.2-0.3 1.8-0.2 0.6 0.1 1.2 0.4 1.6 0.9q0.2 0.2 0.4 0.4 0.2 0.3 0.3 0.6 0.1 0.2 0.2 0.5 0 0.3 0 0.6h-1.1c0-0.5-0.2-1-0.5-1.4q-0.6-0.6-1.5-0.6c-0.5 0-1 0.2-1.4 0.6-0.4 0.4-0.6 0.9-0.5 1.4z" fill="rgb(244, 208, 22)"/>
	<path fill-rule="evenodd" d="m103.5 42c-1.2 0-2.4-0.7-2.8-1.9-0.5-1.2-0.3-2.5 0.6-3.4 0.9-0.9 2.2-1.1 3.4-0.7 1.2 0.5 1.9 1.6 1.9 2.9q0 0.6-0.2 1.2-0.3 0.6-0.7 1-0.4 0.4-1 0.7-0.6 0.2-1.2 0.2zm0-5c-0.8 0-1.5 0.5-1.8 1.2-0.3 0.7-0.1 1.6 0.4 2.1 0.6 0.6 1.4 0.8 2.2 0.4 0.7-0.3 1.2-1 1.2-1.8q0-0.3-0.2-0.7-0.1-0.4-0.4-0.6-0.3-0.3-0.6-0.5-0.4-0.1-0.8-0.1z" fill="rgb(244, 208, 22)"/>
	<path fill-rule="evenodd" d="m103.5 48.3c-3.3 0-6.2-2-7.5-5-1.2-3.1-0.5-6.5 1.8-8.9 2.3-2.3 5.8-3 8.8-1.7 3.1 1.2 5 4.2 5 7.5q0 1.6-0.6 3.1-0.6 1.5-1.7 2.6-1.2 1.1-2.7 1.8-1.5 0.6-3.1 0.6zm0-15.3c-2.8 0-5.4 1.8-6.5 4.4-1.2 2.7-0.5 5.8 1.5 7.8 2 2 5.1 2.7 7.8 1.5 2.6-1.1 4.3-3.7 4.3-6.5q0-1.4-0.5-2.8-0.5-1.3-1.5-2.3-1-1-2.3-1.5-1.4-0.5-2.8-0.6z" fill="rgb(244, 208, 22)"/>
</svg>